<svg aria-hidden="true" style="position: absolute; width: 0; height: 0; overflow: hidden;" version="1.1" xmlns="http://www.w3.org/2000/svg" xmlns:xlink="http://www.w3.org/1999/xlink">
<defs>
<symbol id="icon-arrow" viewBox="0 0 32 32">
<path fill="#fff" style="fill: var(--color1, #fff)" d="M23.416 14.222l-9.536-9.536 2.514-2.514 13.828 13.828-13.828 13.828-2.514-2.514 9.536-9.536h-21.638v-3.556h21.638z"></path>
</symbol>
<symbol id="icon-app-store-button" viewBox="0 0 80 32">
<path fill="currentColor"  opacity="0.94" d="M74.353 0.202h-68.706c-3.007 0-5.445 2.438-5.445 5.445v20.706c0 3.007 2.438 5.445 5.445 5.445h68.706c3.007 0 5.445-2.438 5.445-5.445v-20.706c0-3.007-2.438-5.445-5.445-5.445z"></path>
<path fill="#fff" style="fill: var(--color1, #fff)" d="M17.4 13.219c-0.066 0.041-1.627 0.908-1.627 2.829 0.074 2.191 1.971 2.96 2.003 2.96-0.033 0.041-0.286 1.047-1.038 2.101-0.597 0.908-1.259 1.824-2.265 1.824-0.957 0-1.3-0.605-2.404-0.605-1.186 0-1.521 0.605-2.429 0.605-1.006 0-1.717-0.965-2.347-1.865-0.818-1.178-1.513-3.026-1.537-4.8-0.017-0.94 0.164-1.865 0.621-2.65 0.646-1.096 1.799-1.84 3.058-1.865 0.965-0.032 1.823 0.662 2.412 0.662 0.564 0 1.619-0.662 2.813-0.662 0.515 0.001 1.889 0.156 2.74 1.464zM11.766 11.567c-0.172-0.859 0.302-1.717 0.744-2.265 0.564-0.662 1.456-1.112 2.224-1.112 0.049 0.859-0.262 1.701-0.818 2.314-0.499 0.662-1.357 1.161-2.15 1.063z"></path>
<path fill="#fff" style="fill: var(--color1, #fff)" d="M31.599 23.361h1.423l-3.011-8.018h-1.329l-2.989 8.018h1.417l0.607-1.726h3.276l0.607 1.726zM28.131 20.455l1.219-3.474h0.006l1.219 3.474h-2.443zM36.91 17.775c-0.728 0-1.329 0.259-1.748 0.745h-0.022v-0.667h-1.263v7.743h1.263v-2.906h0.017c0.403 0.485 0.993 0.761 1.743 0.761 1.528 0 2.669-1.114 2.669-2.812 0-1.671-1.142-2.862-2.658-2.862zM36.701 22.302c-0.899 0-1.61-0.667-1.61-1.665 0-0.971 0.656-1.715 1.605-1.715 0.882 0 1.588 0.662 1.588 1.721 0 0.976-0.651 1.66-1.583 1.66zM43.699 17.775c-0.728 0-1.329 0.259-1.748 0.745h-0.022v-0.667h-1.263v7.743h1.263v-2.906h0.017c0.403 0.485 0.993 0.761 1.743 0.761 1.528 0 2.669-1.114 2.669-2.812 0-1.671-1.142-2.862-2.658-2.862zM43.489 22.302c-0.899 0-1.61-0.667-1.61-1.665 0-0.971 0.656-1.715 1.605-1.715 0.882 0 1.588 0.662 1.588 1.721 0 0.976-0.651 1.66-1.583 1.66zM52.81 23.449c1.279 0 2.763-0.739 2.763-2.393 0-1.55-1.103-1.93-2.482-2.471-0.971-0.375-1.511-0.579-1.5-1.164 0.011-0.596 0.502-0.938 1.119-0.938 0.552 0 1.191 0.276 1.847 0.822l0.811-1.070c-0.811-0.64-1.71-0.993-2.658-0.987-1.384 0.006-2.531 0.982-2.531 2.245 0 1.461 1.208 2.007 2.421 2.438 1.015 0.358 1.55 0.585 1.55 1.279 0 0.596-0.452 0.982-1.335 0.982-0.684 0-1.472-0.353-2.057-1.059l-0.86 1.059c0.844 0.866 1.886 1.257 2.912 1.257zM58.303 23.449c0.717 0 1.064-0.149 1.395-0.32l-0.331-1.092c-0.292 0.154-0.601 0.237-0.816 0.237-0.353 0-0.529-0.204-0.529-0.767v-2.575h1.627v-1.075h-1.627v-1.969l-1.257 0.138v1.831h-0.673v1.075h0.673v2.691c0 1.23 0.585 1.825 1.539 1.825zM62.858 23.449c1.687 0 2.89-1.153 2.89-2.829 0-1.688-1.202-2.846-2.89-2.846-1.743 0-2.895 1.219-2.895 2.846 0 1.616 1.153 2.829 2.895 2.829zM62.858 22.308c-0.948 0-1.605-0.744-1.605-1.687 0-0.96 0.645-1.698 1.61-1.698 0.904 0 1.605 0.689 1.605 1.698 0 0.993-0.711 1.687-1.605 1.687h-0.006zM69.845 17.775c-0.673 0-1.285 0.325-1.721 0.904h-0.011v-0.827h-1.263v5.509h1.263v-2.614c0-0.893 0.546-1.583 1.506-1.583 0.088 0 0.237 0.006 0.38 0.017v-1.406c-0.044-0.005-0.099-0.005-0.154-0.005v0.005zM75.702 20.543c0-1.605-1.048-2.768-2.675-2.768-1.533 0-2.686 1.147-2.686 2.835 0 1.721 1.213 2.84 2.818 2.84 1.081 0 1.853-0.436 2.322-1.037l-0.882-0.756c-0.281 0.353-0.733 0.651-1.373 0.651-0.811 0-1.406-0.474-1.572-1.257h4.015c0.016-0.099 0.033-0.309 0.033-0.502v-0.006zM73.094 18.922c0.722 0 1.18 0.441 1.346 1.108h-2.763c0.182-0.717 0.728-1.108 1.417-1.108z"></path>
<path fill="#fff" style="fill: var(--color1, #fff)" d="M29.021 12.235h0.83l-1.756-4.677h-0.775l-1.744 4.677h0.827l0.354-1.007h1.911l0.354 1.007zM26.998 10.54l0.711-2.027h0.003l0.711 2.027h-1.425zM32.161 9.025l-0.824 2.29h-0.013l-0.84-2.29h-0.788l1.28 3.21h0.705l1.274-3.21h-0.795zM35.619 9.025v0.386h-0.016c-0.241-0.286-0.586-0.434-0.994-0.434-0.885 0-1.55 0.698-1.55 1.67 0 0.994 0.666 1.641 1.557 1.641 0.444 0 0.788-0.171 1.026-0.479h0.006v0.431h0.705v-3.214h-0.733zM34.731 11.621c-0.544 0-0.923-0.402-0.923-0.972 0-0.618 0.412-1.004 0.926-1.004 0.528 0 0.91 0.434 0.91 1.004 0 0.582-0.415 0.972-0.914 0.972zM37.572 8.546c0.27 0 0.495-0.222 0.495-0.492 0-0.267-0.225-0.489-0.495-0.489-0.28 0-0.499 0.222-0.499 0.489 0 0.27 0.219 0.492 0.499 0.492zM37.199 12.235h0.737v-3.21h-0.737v3.21zM38.862 12.235h0.737v-4.848h-0.737v4.848zM42.842 9.025v0.386h-0.016c-0.241-0.286-0.585-0.434-0.994-0.434-0.885 0-1.551 0.698-1.551 1.67 0 0.994 0.666 1.641 1.557 1.641 0.444 0 0.788-0.171 1.026-0.479h0.006v0.431h0.704v-3.214h-0.733zM41.954 11.621c-0.544 0-0.923-0.402-0.923-0.972 0-0.618 0.412-1.004 0.926-1.004 0.528 0 0.91 0.434 0.91 1.004 0 0.582-0.415 0.972-0.914 0.972zM46.142 8.977c-0.421 0-0.775 0.148-1.017 0.434h-0.016v-2.023h-0.737v4.848h0.705v-0.428h0.016c0.232 0.306 0.585 0.479 1.042 0.479 0.891 0 1.557-0.65 1.557-1.641 0-0.975-0.666-1.673-1.551-1.673v0.003zM46.020 11.618c-0.524 0-0.939-0.389-0.939-0.972 0-0.569 0.386-1.004 0.936-1.004 0.515 0 0.926 0.386 0.926 1.004 0 0.569-0.38 0.972-0.923 0.972zM48.381 12.235h0.737v-4.848h-0.737v4.848zM52.933 10.592c0-0.936-0.611-1.615-1.56-1.615-0.894 0-1.567 0.669-1.567 1.653 0 1.004 0.708 1.657 1.644 1.657 0.631 0 1.081-0.254 1.354-0.605l-0.515-0.441c-0.164 0.206-0.428 0.38-0.801 0.38-0.473 0-0.82-0.277-0.917-0.733h2.342c0.010-0.058 0.019-0.18 0.019-0.293v-0.003zM51.412 9.646c0.421 0 0.688 0.257 0.785 0.647h-1.612c0.106-0.418 0.425-0.647 0.827-0.647zM56.694 12.287c0.984 0 1.686-0.672 1.686-1.65 0-0.984-0.701-1.66-1.686-1.66-1.017 0-1.689 0.711-1.689 1.66 0 0.942 0.672 1.65 1.689 1.65zM56.694 11.621c-0.553 0-0.936-0.434-0.936-0.984 0-0.56 0.376-0.991 0.939-0.991 0.528 0 0.936 0.402 0.936 0.991 0 0.579-0.415 0.984-0.936 0.984h-0.003zM60.844 8.977c-0.415 0-0.804 0.17-1.078 0.489h-0.010v-0.441h-0.737v3.21h0.737v-1.612c0-0.63 0.335-0.978 0.833-0.978 0.444 0 0.698 0.212 0.698 0.891v1.705h0.737v-1.895c0-0.965-0.476-1.37-1.181-1.37zM65.393 12.287c0.418 0 0.621-0.087 0.814-0.187l-0.193-0.637c-0.171 0.090-0.351 0.138-0.476 0.138-0.206 0-0.309-0.119-0.309-0.447v-1.502h0.949v-0.627h-0.949v-1.148l-0.733 0.080v1.068h-0.392v0.627h0.392v1.57c0 0.717 0.341 1.065 0.898 1.065zM68.543 8.977c-0.428 0-0.817 0.151-1.087 0.45h-0.013v-2.040h-0.737v4.848h0.737v-1.634c0-0.63 0.335-0.959 0.865-0.959 0.444 0 0.698 0.219 0.698 0.859v1.737h0.737v-1.927c0-0.959-0.492-1.338-1.2-1.338v0.003zM73.455 10.592c0-0.936-0.611-1.615-1.56-1.615-0.894 0-1.567 0.669-1.567 1.653 0 1.004 0.708 1.657 1.644 1.657 0.63 0 1.081-0.254 1.354-0.605l-0.515-0.441c-0.164 0.206-0.428 0.38-0.801 0.38-0.473 0-0.82-0.277-0.917-0.733h2.342c0.010-0.058 0.019-0.18 0.019-0.293v-0.003zM71.933 9.646c0.421 0 0.688 0.257 0.785 0.647h-1.612c0.106-0.418 0.425-0.647 0.827-0.647z"></path>
</symbol>
<symbol id="icon-google-play-button" viewBox="0 0 91 32">
<path fill="currentColor"  opacity="0.94" d="M85.617 0.202h-80.033c-2.973 0-5.384 2.438-5.384 5.445v20.706c0 3.007 2.41 5.445 5.384 5.445h80.033c2.973 0 5.383-2.438 5.383-5.445v-20.706c0-3.007-2.41-5.445-5.383-5.445z"></path>
<path fill="#fff" style="fill: var(--color1, #fff)" d="M5.977 8.641l6.852 6.88 1.879-1.9-8.306-4.85c-0.138-0.081-0.287-0.126-0.425-0.13zM5.404 8.961c-0.062 0.111-0.099 0.242-0.099 0.39v13.37c0 0.108 0.022 0.204 0.059 0.29l7.010-7.040-6.971-7.010zM15.282 13.951l-2.007 2.020 2.007 2.010 2.452-1.42c0.348-0.204 0.398-0.462 0.396-0.6-0.004-0.228-0.146-0.44-0.386-0.57-0.209-0.114-1.76-1.027-2.462-1.44zM12.83 16.421l-6.912 6.93c0.115-0.006 0.24-0.031 0.356-0.1 0.271-0.159 5.745-3.36 5.745-3.36l2.699-1.57-1.889-1.9z"></path>
<path fill="#fff" style="fill: var(--color1, #fff)" d="M30.095 23.741c1.221 0 2.383-0.392 3.108-0.998v-3.353h-3.277v1.224h1.936v1.351c-0.534 0.358-1.134 0.529-1.767 0.529-1.587 0-2.596-1.219-2.596-2.824 0-1.743 1.112-2.829 2.541-2.829 0.894 0 1.609 0.336 2.148 0.871l0.954-0.827c-0.823-0.91-1.99-1.329-3.097-1.329-2.437 0-3.953 1.759-3.953 4.119 0 2.542 1.728 4.064 4.002 4.064zM37.096 23.757c1.669 0 2.857-1.153 2.857-2.829 0-1.687-1.189-2.846-2.857-2.846-1.723 0-2.863 1.219-2.863 2.846 0 1.616 1.14 2.829 2.863 2.829zM37.096 22.616c-0.938 0-1.587-0.744-1.587-1.688 0-0.96 0.638-1.699 1.592-1.699 0.894 0 1.587 0.689 1.587 1.699 0 0.993-0.703 1.688-1.587 1.688h-0.006zM43.58 23.757c1.668 0 2.857-1.153 2.857-2.829 0-1.687-1.189-2.846-2.857-2.846-1.723 0-2.863 1.219-2.863 2.846 0 1.616 1.14 2.829 2.863 2.829zM43.58 22.616c-0.938 0-1.587-0.744-1.587-1.688 0-0.96 0.638-1.699 1.592-1.699 0.894 0 1.587 0.689 1.587 1.699 0 0.993-0.703 1.688-1.587 1.688h-0.005zM51.487 18.166v0.579h-0.022c-0.458-0.441-1.063-0.667-1.69-0.667-1.516 0-2.596 1.169-2.596 2.779 0 1.638 1.134 2.719 2.661 2.719 0.682 0 1.243-0.237 1.652-0.673h0.022v0.585c0 0.739-0.551 1.357-1.625 1.357-0.769 0-1.26-0.226-1.848-0.546l-0.294 1.12c0.611 0.364 1.401 0.568 2.219 0.568 2.018 0 2.776-1.213 2.776-2.884v-4.941l-1.254 0.006zM50.009 22.417c-0.878 0-1.554-0.607-1.554-1.599 0-0.932 0.627-1.583 1.554-1.583 0.867 0 1.538 0.623 1.538 1.566 0 0.932-0.627 1.61-1.538 1.61v0.006zM54.164 23.669h1.249v-8.311h-1.249v8.311zM61.88 20.851c0-1.605-1.036-2.768-2.645-2.768-1.516 0-2.656 1.147-2.656 2.835 0 1.721 1.2 2.84 2.786 2.84 1.069 0 1.832-0.436 2.296-1.037l-0.872-0.755c-0.278 0.353-0.725 0.651-1.358 0.651-0.802 0-1.39-0.474-1.554-1.257h3.97c0.016-0.099 0.033-0.309 0.033-0.502v-0.006zM59.301 19.23c0.714 0 1.167 0.441 1.33 1.108h-2.732c0.18-0.717 0.72-1.108 1.401-1.108zM65.872 23.669h1.347v-2.857h1.369c1.712 0 2.868-0.827 2.868-2.564 0-1.495-0.813-2.598-2.71-2.598h-2.874v8.018zM67.219 19.577v-2.708h1.33c0.971 0 1.51 0.513 1.51 1.357 0 0.794-0.496 1.357-1.603 1.357l-1.238-0.005zM72.607 23.669h1.249v-8.311h-1.249v8.311zM79.352 18.166v0.662h-0.027c-0.409-0.491-0.992-0.744-1.685-0.744-1.5 0-2.628 1.197-2.628 2.862 0 1.704 1.129 2.812 2.639 2.812 0.752 0 1.336-0.292 1.739-0.822h0.011v0.739h1.194v-5.509h-1.243zM77.847 22.616c-0.922 0-1.565-0.689-1.565-1.665 0-1.059 0.698-1.721 1.57-1.721 0.894 0 1.543 0.745 1.543 1.721 0 0.998-0.703 1.665-1.549 1.665zM85.579 18.166l-1.396 3.717h-0.011l-1.51-3.717h-1.308l2.214 5.2-0.982 2.537h1.314l2.988-7.737h-1.309z"></path>
<path fill="#fff" style="fill: var(--color1, #fff)" d="M28.615 12.277c0.713 0 1.39-0.228 1.813-0.582v-1.956h-1.912v0.714h1.129v0.788c-0.312 0.209-0.662 0.309-1.031 0.309-0.926 0-1.514-0.711-1.514-1.647 0-1.017 0.649-1.65 1.482-1.65 0.522 0 0.938 0.196 1.253 0.508l0.557-0.483c-0.48-0.531-1.161-0.775-1.807-0.775-1.422 0-2.306 1.026-2.306 2.403 0 1.483 1.008 2.371 2.335 2.371zM31.309 12.235h3.047v-0.711h-2.262v-1.251h1.721v-0.714h-1.721v-1.29h2.128v-0.711h-2.91l-0.003 4.677zM36.090 12.235h0.786v-3.966h1.326v-0.711h-3.426v0.711h1.314v3.966zM40.489 12.235h0.792v-4.677h-0.792v4.677zM43.263 12.235h0.786v-3.966h1.326v-0.711h-3.426v0.711h1.314v3.966zM49.765 12.287c1.336 0 2.331-0.962 2.331-2.39s-0.996-2.39-2.331-2.39c-1.39 0-2.341 1.017-2.341 2.39 0 1.377 0.951 2.39 2.341 2.39zM49.765 11.544c-0.903 0-1.524-0.73-1.524-1.647s0.62-1.65 1.524-1.65c0.856 0 1.514 0.688 1.514 1.647s-0.658 1.65-1.514 1.65zM55.945 7.558v3.358h-0.016l-2.258-3.358h-0.779v4.677h0.786v-3.31h0.013l2.239 3.31h0.802v-4.677h-0.786z"></path>
</symbol>
<symbol id="icon-logo" viewBox="0 0 35 32">
<path fill="none" stroke="#fff" style="stroke: var(--color1, #fff)" stroke-linejoin="miter" stroke-linecap="butt" stroke-miterlimit="4" stroke-width="4" d="M31.223 16c0 7.745-6.231 14-13.889 14s-13.889-6.255-13.889-14c0-7.745 6.231-14 13.889-14s13.889 6.255 13.889 14z"></path>
<path fill="#fff" style="fill: var(--color1, #fff)" d="M32.14 21.819v-11.636l1.797 1.034c0.452 0.26 0.731 0.742 0.731 1.264v7.041c0 0.522-0.279 1.004-0.731 1.264l-1.797 1.034z"></path>
<path fill="#fff" style="fill: var(--color1, #fff)" d="M2.528 10.181v11.636l-1.797-1.034c-0.452-0.26-0.731-0.742-0.731-1.264v-7.040c0-0.522 0.279-1.004 0.731-1.264l1.797-1.034z"></path>
</symbol>
<symbol id="icon-hamburger" fill="none" viewBox="0 0 24 24" stroke-width="1.5" stroke="currentColor">
  <path stroke-linecap="round" stroke-linejoin="round" d="M3.75 9h16.5m-16.5 6.75h16.5" />

</symbol>
</defs>
</svg>
