<svg aria-hidden="true" style="position: absolute; width: 0; height: 0; overflow: hidden;" version="1.1"
  xmlns="http://www.w3.org/2000/svg"
  xmlns:xlink="http://www.w3.org/1999/xlink">
  <defs>
    <symbol id="icon-arrow" viewBox="0 0 32 32">
      <path fill="#fff" style="fill: var(--color1, #fff)" d="M23.416 14.222l-9.536-9.536 2.514-2.514 13.828 13.828-13.828 13.828-2.514-2.514 9.536-9.536h-21.638v-3.556h21.638z"></path>
    </symbol>

    <symbol id="icon-app-store-button" viewBox="0 0 100 40">
      <path d="M92.9412 0.25293H7.05884C3.29997 0.25293 0.252808 3.3001 0.252808 7.05896V32.9415C0.252808 36.7004 3.29997 39.7475 7.05884 39.7475H92.9412C96.7001 39.7475 99.7473 36.7004 99.7473 32.9415V7.05896C99.7473 3.3001 96.7001 0.25293 92.9412 0.25293Z" fill="#161616" fill-opacity="0.94"/>
      <mask id="mask0_42_2488" style="mask-type:luminance" maskUnits="userSpaceOnUse" x="4" y="10" width="21" height="20">
        <path d="M24.7059 10H4.70593V30H24.7059V10Z" fill="white"/>
      </mask>
      <g mask="url(#mask0_42_2488)">
        <path d="M21.7499 16.5237C21.6679 16.5751 19.7159 17.6584 19.7159 20.0604C19.8079 22.7997 22.1792 23.7604 22.2199 23.7604C22.1792 23.8117 21.8619 25.0691 20.9219 26.3871C20.1759 27.5224 19.3479 28.6671 18.0906 28.6671C16.8946 28.6671 16.4652 27.9104 15.0852 27.9104C13.6032 27.9104 13.1839 28.6671 12.0492 28.6671C10.7919 28.6671 9.90253 27.4611 9.11586 26.3364C8.09386 24.8644 7.2252 22.5544 7.19453 20.3364C7.17386 19.1611 7.39919 18.0057 7.97119 17.0244C8.77853 15.6544 10.2199 14.7244 11.7939 14.6937C12.9999 14.6531 14.0732 15.5217 14.8092 15.5217C15.5146 15.5217 16.8332 14.6937 18.3252 14.6937C18.9692 14.6944 20.6866 14.8884 21.7499 16.5237ZM14.7072 14.4591C14.4926 13.3857 15.0852 12.3124 15.6372 11.6278C16.3426 10.7998 17.4566 10.2378 18.4172 10.2378C18.4786 11.3111 18.0899 12.3637 17.3952 13.1304C16.7719 13.9584 15.6986 14.5817 14.7072 14.4591Z" fill="white"/>
      </g>
      <path d="M39.499 29.2013H41.2775L37.5137 19.1784H35.8524L32.1162 29.2013H33.8879L34.6461 27.0437H38.7408L39.499 29.2013ZM35.1632 25.5685L36.6866 21.2257H36.6935L38.2169 25.5685H35.1632ZM46.1376 22.2183C45.2277 22.2183 44.4763 22.5423 43.9524 23.149H43.9249V22.3149H42.3463V31.9931H43.9249V28.3603H43.9456C44.4488 28.967 45.1863 29.3116 46.1239 29.3116C48.0334 29.3116 49.4603 27.9191 49.4603 25.7961C49.4603 23.7073 48.0334 22.2183 46.1376 22.2183ZM45.8757 27.8778C44.7521 27.8778 43.8628 27.0437 43.8628 25.7961C43.8628 24.5828 44.6832 23.6522 45.8688 23.6522C46.9717 23.6522 47.8541 24.4793 47.8541 25.8029C47.8541 27.023 47.0407 27.8778 45.8757 27.8778ZM54.6237 22.2183C53.7137 22.2183 52.9623 22.5423 52.4384 23.149H52.4109V22.3149H50.8323V31.9931H52.4109V28.3603H52.4316C52.9348 28.967 53.6724 29.3116 54.6099 29.3116C56.5194 29.3116 57.9463 27.9191 57.9463 25.7961C57.9463 23.7073 56.5194 22.2183 54.6237 22.2183ZM54.3617 27.8778C53.2381 27.8778 52.3489 27.0437 52.3489 25.7961C52.3489 24.5828 53.1692 23.6522 54.3548 23.6522C55.4577 23.6522 56.3401 24.4793 56.3401 25.8029C56.3401 27.023 55.5267 27.8778 54.3617 27.8778ZM66.0121 29.3116C67.6114 29.3116 69.4657 28.3879 69.4657 26.3199C69.4657 24.3829 68.087 23.9072 66.3636 23.2317C65.1504 22.7629 64.4749 22.5078 64.4887 21.7771C64.5024 21.0326 65.116 20.6052 65.888 20.6052C66.5774 20.6052 67.377 20.9499 68.1973 21.6324L69.2107 20.2951C68.1973 19.4955 67.0737 19.0543 65.888 19.0611C64.1577 19.0681 62.724 20.2882 62.724 21.8668C62.724 23.6935 64.2336 24.3759 65.7502 24.9137C67.0186 25.3617 67.6872 25.6444 67.6872 26.5129C67.6872 27.2573 67.122 27.7399 66.019 27.7399C65.1642 27.7399 64.1784 27.2988 63.4477 26.4164L62.3724 27.7399C63.427 28.8222 64.73 29.3116 66.0121 29.3116ZM72.8782 29.3116C73.7743 29.3116 74.2086 29.1255 74.6222 28.9118L74.2086 27.5469C73.8433 27.7399 73.4573 27.8433 73.1884 27.8433C72.7473 27.8433 72.5267 27.5883 72.5267 26.8851V23.6659H74.5602V22.3217H72.5267V19.8608L70.9549 20.0331V22.3217H70.114V23.6659H70.9549V27.0299C70.9549 28.5671 71.6856 29.3116 72.8782 29.3116ZM78.5724 29.3116C80.6817 29.3116 82.1846 27.8709 82.1846 25.7753C82.1846 23.6659 80.6817 22.2183 78.5724 22.2183C76.3941 22.2183 74.9534 23.7418 74.9534 25.7753C74.9534 27.7951 76.3941 29.3116 78.5724 29.3116ZM78.5724 27.8846C77.3868 27.8846 76.5664 26.9541 76.5664 25.7753C76.5664 24.5758 77.3729 23.6522 78.5793 23.6522C79.7099 23.6522 80.5853 24.5138 80.5853 25.7753C80.5853 27.0162 79.696 27.8846 78.5793 27.8846H78.5724ZM87.3066 22.2183C86.4656 22.2183 85.7005 22.625 85.1559 23.3489H85.1421V22.3149H83.5635V29.2013H85.1421V25.9338C85.1421 24.8171 85.8246 23.9555 87.024 23.9555C87.1342 23.9555 87.3203 23.9624 87.4996 23.9762V22.2183C87.4445 22.2115 87.3755 22.2115 87.3066 22.2115V22.2183ZM94.6276 25.6788C94.6276 23.6729 93.3179 22.2183 91.2843 22.2183C89.368 22.2183 87.9273 23.6522 87.9273 25.7616C87.9273 27.9123 89.4439 29.3116 91.4497 29.3116C92.8009 29.3116 93.766 28.767 94.3519 28.0157L93.2489 27.0712C92.8974 27.5124 92.3321 27.8846 91.5326 27.8846C90.5192 27.8846 89.7747 27.2918 89.5679 26.313H94.5863C94.6069 26.1889 94.6276 25.927 94.6276 25.6857V25.6788ZM91.367 23.6522C92.2701 23.6522 92.8422 24.2036 93.049 25.0377H89.5955C89.8229 24.1416 90.5054 23.6522 91.367 23.6522Z" fill="white"/>
      <path d="M36.2764 15.2942H37.3138L35.1183 9.44749H34.1493L31.9697 15.2942H33.0031L33.4455 14.0356H35.8341L36.2764 15.2942ZM33.7471 13.1751L34.6357 10.6418H34.6397L35.5284 13.1751H33.7471ZM40.2011 11.2811L39.1717 14.1442H39.1557L38.1062 11.2811H37.121L38.7214 15.2942H39.6021L41.1944 11.2811H40.2011ZM44.5241 11.2811V11.7637H44.504C44.2024 11.4058 43.7721 11.2208 43.2614 11.2208C42.1556 11.2208 41.3233 12.0934 41.3233 13.3078C41.3233 14.5504 42.1556 15.3586 43.2695 15.3586C43.8244 15.3586 44.2547 15.1454 44.5522 14.7594H44.5602V15.2982H45.4409V11.2811H44.5241ZM43.4142 14.5262C42.7347 14.5262 42.2602 14.0235 42.2602 13.3118C42.2602 12.5398 42.7749 12.0572 43.4182 12.0572C44.0777 12.0572 44.5562 12.6001 44.5562 13.3118C44.5562 14.0396 44.0375 14.5262 43.4142 14.5262ZM46.965 10.682C47.3028 10.682 47.5843 10.4045 47.5843 10.0668C47.5843 9.733 47.3028 9.45554 46.965 9.45554C46.6153 9.45554 46.3417 9.733 46.3417 10.0668C46.3417 10.4045 46.6153 10.682 46.965 10.682ZM46.4986 15.2942H47.4195V11.2811H46.4986V15.2942ZM48.5777 15.2942H49.4986V9.23438H48.5777V15.2942ZM53.552 11.2811V11.7637H53.5318C53.2303 11.4058 52.8001 11.2208 52.2894 11.2208C51.1836 11.2208 50.3511 12.0934 50.3511 13.3078C50.3511 14.5504 51.1836 15.3586 52.2974 15.3586C52.8523 15.3586 53.2826 15.1454 53.5802 14.7594H53.5882V15.2982H54.4688V11.2811H53.552ZM52.4422 14.5262C51.7626 14.5262 51.2881 14.0235 51.2881 13.3118C51.2881 12.5398 51.8028 12.0572 52.4462 12.0572C53.1056 12.0572 53.5842 12.6001 53.5842 13.3118C53.5842 14.0396 53.0655 14.5262 52.4422 14.5262ZM57.6778 11.2208C57.1511 11.2208 56.7088 11.4058 56.4071 11.7637H56.387V9.23438H55.4662V15.2942H56.3469V14.7594H56.367C56.6564 15.1414 57.0988 15.3586 57.6698 15.3586C58.7837 15.3586 59.6161 14.5464 59.6161 13.3078C59.6161 12.0894 58.7837 11.2168 57.6778 11.2168V11.2208ZM57.525 14.5222C56.8696 14.5222 56.3509 14.0356 56.3509 13.3078C56.3509 12.596 56.8334 12.0532 57.521 12.0532C58.1644 12.0532 58.6791 12.5358 58.6791 13.3078C58.6791 14.0195 58.2047 14.5222 57.525 14.5222ZM60.4768 15.2942H61.3976V9.23438H60.4768V15.2942ZM66.1668 13.2394C66.1668 12.0693 65.4028 11.2208 64.2166 11.2208C63.0987 11.2208 62.2582 12.0572 62.2582 13.2876C62.2582 14.5422 63.1429 15.3586 64.313 15.3586C65.1013 15.3586 65.6642 15.0409 66.006 14.6026L65.3626 14.0516C65.1575 14.3091 64.8277 14.5262 64.3613 14.5262C63.7702 14.5262 63.336 14.1804 63.2153 13.6094H66.1427C66.1548 13.5369 66.1668 13.3842 66.1668 13.2434V13.2394ZM64.2648 12.0572C64.7916 12.0572 65.1254 12.3789 65.246 12.8654H63.2314C63.3641 12.3427 63.7622 12.0572 64.2648 12.0572ZM70.8678 15.3586C72.0983 15.3586 72.9749 14.5181 72.9749 13.2958C72.9749 12.0653 72.0983 11.2208 70.8678 11.2208C69.5971 11.2208 68.7568 12.1095 68.7568 13.2958C68.7568 14.4739 69.5971 15.3586 70.8678 15.3586ZM70.8678 14.5262C70.1762 14.5262 69.6977 13.9833 69.6977 13.2958C69.6977 12.596 70.1682 12.0572 70.8718 12.0572C71.5314 12.0572 72.042 12.5599 72.042 13.2958C72.042 14.0195 71.5233 14.5262 70.8718 14.5262H70.8678ZM76.0553 11.2208C75.5366 11.2208 75.05 11.4339 74.7082 11.832H74.6961V11.2811H73.7753V15.2942H74.6961V13.2796C74.6961 12.4915 75.1143 12.0572 75.7376 12.0572C76.2925 12.0572 76.6102 12.3226 76.6102 13.1711V15.3022H77.531V12.9339C77.531 11.7275 76.9358 11.2208 76.0553 11.2208ZM81.7415 15.3586C82.2642 15.3586 82.5176 15.25 82.7588 15.1253L82.5176 14.3292C82.3044 14.4418 82.0793 14.5021 81.9224 14.5021C81.6651 14.5021 81.5364 14.3533 81.5364 13.9432V12.0653H82.7227V11.2811H81.5364V9.84559L80.6196 9.94612V11.2811H80.129V12.0653H80.6196V14.0275C80.6196 14.9242 81.0458 15.3586 81.7415 15.3586ZM85.6783 11.2208C85.1435 11.2208 84.657 11.4098 84.3191 11.7838H84.3031V9.23438H83.3823V15.2942H84.3031V13.2515C84.3031 12.4634 84.7213 12.0532 85.3848 12.0532C85.9397 12.0532 86.2574 12.3266 86.2574 13.1268V15.2982H87.1782V12.8896C87.1782 11.6913 86.563 11.2168 85.6783 11.2168V11.2208ZM91.8188 13.2394C91.8188 12.0693 91.0548 11.2208 89.8685 11.2208C88.7507 11.2208 87.9102 12.0572 87.9102 13.2876C87.9102 14.5422 88.7949 15.3586 89.965 15.3586C90.7531 15.3586 91.3162 15.0409 91.658 14.6026L91.0145 14.0516C90.8095 14.3091 90.4797 14.5262 90.0133 14.5262C89.4222 14.5262 88.9878 14.1804 88.8673 13.6094H91.7947C91.8067 13.5369 91.8188 13.3842 91.8188 13.2434V13.2394ZM89.9168 12.0572C90.4436 12.0572 90.7773 12.3789 90.898 12.8654H88.8834C89.0161 12.3427 89.4142 12.0572 89.9168 12.0572Z" fill="white"/>
      <path d="M92.9412 0.25293H7.05884C3.29997 0.25293 0.252808 3.3001 0.252808 7.05896V32.9415C0.252808 36.7004 3.29997 39.7475 7.05884 39.7475H92.9412C96.7001 39.7475 99.7473 36.7004 99.7473 32.9415V7.05896C99.7473 3.3001 96.7001 0.25293 92.9412 0.25293Z" stroke="white" stroke-width="0.429739"/>
    </symbol>

    <symbol id="icon-google-play-button" viewBox="0 0 114 40">
      <g clip-path="url(#clip0_42_2482)">
        <path d="M107.021 0.25293H6.97964C3.26296 0.25293 0.25 3.3001 0.25 7.05897V32.9414C0.25 36.7002 3.26296 39.7474 6.97964 39.7474H107.021C110.737 39.7474 113.75 36.7002 113.75 32.9414V7.05897C113.75 3.3001 110.737 0.25293 107.021 0.25293Z" fill="#161616" fill-opacity="0.94"/>
        <path d="M7.47181 10.8008L16.0371 19.4008L18.3855 17.0258L8.00328 10.9633C7.83024 10.8617 7.64484 10.8055 7.47181 10.8008ZM6.75494 11.2008C6.6777 11.3399 6.63135 11.5039 6.63135 11.6883V28.4008C6.63135 28.5352 6.65916 28.6555 6.70551 28.7633L15.4686 19.9633L6.75494 11.2008ZM19.1023 17.4382L16.5932 19.9633L19.1023 22.4758L22.1675 20.7008C22.6031 20.4461 22.665 20.1227 22.6619 19.9508C22.6572 19.6664 22.4796 19.4008 22.1798 19.2382C21.9188 19.0961 19.9798 17.9539 19.1023 17.4382ZM16.0371 20.5258L7.39765 29.1882C7.54134 29.1805 7.69738 29.1492 7.8426 29.0633C8.18095 28.8648 15.0236 24.8633 15.0236 24.8633L18.3978 22.9008L16.0371 20.5258Z" fill="white"/>
        <path d="M37.6184 29.6761C39.1452 29.6761 40.597 29.1867 41.5035 28.4285V24.2373H37.4071V25.7675H39.8268V27.4565C39.1588 27.9046 38.4091 28.1182 37.6184 28.1182C35.635 28.1182 34.374 26.5948 34.374 24.5888C34.374 22.4105 35.7644 21.0525 37.5503 21.0525C38.6681 21.0525 39.561 21.4731 40.2358 22.1417L41.4286 21.1077C40.3994 19.9702 38.9407 19.4464 37.557 19.4464C34.5103 19.4464 32.6155 21.6453 32.6155 24.5957C32.6155 27.7735 34.7761 29.6761 37.6184 29.6761ZM46.3704 29.6968C48.4561 29.6968 49.9421 28.2561 49.9421 26.1605C49.9421 24.0512 48.4561 22.6035 46.3704 22.6035C44.2166 22.6035 42.7921 24.1269 42.7921 26.1605C42.7921 28.1802 44.2166 29.6968 46.3704 29.6968ZM46.3704 28.2699C45.1981 28.2699 44.387 27.3393 44.387 26.1605C44.387 24.9611 45.1844 24.0373 46.3773 24.0373C47.495 24.0373 48.3607 24.8991 48.3607 26.1605C48.3607 27.4013 47.4814 28.2699 46.3773 28.2699H46.3704ZM54.475 29.6968C56.5606 29.6968 58.0466 28.2561 58.0466 26.1605C58.0466 24.0512 56.5606 22.6035 54.475 22.6035C52.3211 22.6035 50.8965 24.1269 50.8965 26.1605C50.8965 28.1802 52.3211 29.6968 54.475 29.6968ZM54.475 28.2699C53.3026 28.2699 52.4915 27.3393 52.4915 26.1605C52.4915 24.9611 53.2889 24.0373 54.4817 24.0373C55.5996 24.0373 56.4652 24.8991 56.4652 26.1605C56.4652 27.4013 55.586 28.2699 54.4817 28.2699H54.475ZM64.3584 22.7069V23.4307H64.3312C63.7586 22.8793 63.0021 22.5966 62.2183 22.5966C60.3234 22.5966 58.9738 24.058 58.9738 26.0709C58.9738 28.1182 60.3915 29.4693 62.3 29.4693C63.152 29.4693 63.854 29.1729 64.3653 28.6284H64.3925V29.3591C64.3925 30.2827 63.7041 31.0548 62.3613 31.0548C61.4002 31.0548 60.7869 30.7721 60.0507 30.3724L59.6827 31.7718C60.446 32.2267 61.4343 32.4818 62.4567 32.4818C64.9787 32.4818 65.9262 30.9652 65.9262 28.8765V22.7L64.3584 22.7069ZM62.5113 28.0218C61.414 28.0218 60.5687 27.2634 60.5687 26.0226C60.5687 24.8577 61.3526 24.0442 62.5113 24.0442C63.5951 24.0442 64.4335 24.8232 64.4335 26.002C64.4335 27.1669 63.6495 28.0148 62.5113 28.0148V28.0218ZM67.7054 29.5865H69.2662V19.1982H67.7054V29.5865ZM77.3502 26.064C77.3502 24.058 76.0553 22.6035 74.0445 22.6035C72.1496 22.6035 70.7251 24.0373 70.7251 26.1467C70.7251 28.2974 72.2247 29.6968 74.2081 29.6968C75.544 29.6968 76.4983 29.1522 77.0777 28.4008L75.9871 27.4565C75.6394 27.8977 75.0806 28.2699 74.2899 28.2699C73.288 28.2699 72.5518 27.6771 72.3474 26.6982H77.3094C77.3299 26.5741 77.3502 26.3121 77.3502 26.0709V26.064ZM74.1264 24.0373C75.0192 24.0373 75.585 24.5888 75.7894 25.4229H72.3746C72.5996 24.5268 73.2743 24.0373 74.1264 24.0373ZM82.3402 29.5865H84.0237V26.0158H85.7345C87.8748 26.0158 89.3198 24.9818 89.3198 22.8104C89.3198 20.9422 88.3041 19.5635 85.9322 19.5635H82.3402V29.5865ZM84.0237 24.4717V21.0869H85.6868C86.9001 21.0869 87.5749 21.7281 87.5749 22.7827C87.5749 23.7754 86.9546 24.4785 85.5709 24.4785L84.0237 24.4717ZM90.7582 29.5865H92.319V19.1982H90.7582V29.5865ZM99.1898 22.7069V23.5341H99.1558C98.6446 22.9206 97.9153 22.6035 97.0497 22.6035C95.1752 22.6035 93.7644 24.0994 93.7644 26.1812C93.7644 28.3113 95.1752 29.6968 97.0633 29.6968C98.0039 29.6968 98.7332 29.3314 99.2375 28.6697H99.2513V29.5934H100.744V22.7069H99.1898ZM97.3086 28.2699C96.1567 28.2699 95.3525 27.4082 95.3525 26.1881C95.3525 24.8646 96.2249 24.0373 97.3155 24.0373C98.4333 24.0373 99.2444 24.968 99.2444 26.1881C99.2444 27.4358 98.3651 28.2699 97.3086 28.2699ZM106.974 22.7069L105.229 27.3531H105.215L103.327 22.7069H101.692L104.459 29.2074L103.232 32.3784H104.875L108.61 22.7069H106.974Z" fill="white"/>
        <path d="M35.7686 15.3462C36.6593 15.3462 37.5062 15.0608 38.035 14.6185V12.1736H35.6454V13.0662H37.0569V14.0514C36.6672 14.3128 36.2299 14.4375 35.7686 14.4375C34.6116 14.4375 33.8761 13.5488 33.8761 12.3787C33.8761 11.108 34.6871 10.3158 35.729 10.3158C36.381 10.3158 36.9019 10.5611 37.2954 10.9512L37.9913 10.348C37.3909 9.68451 36.54 9.37891 35.7329 9.37891C33.9556 9.37891 32.8502 10.6616 32.8502 12.3827C32.8502 14.2365 34.1106 15.3462 35.7686 15.3462ZM39.1365 15.294H42.9455V14.4053H40.1185V12.8411H42.2696V11.9484H40.1185V10.3359H42.7786V9.44726H39.1405L39.1365 15.294ZM45.1125 15.294H46.0947V10.3359H47.7527V9.44726H43.4705V10.3359H45.1125V15.294ZM50.6118 15.294H51.6017V9.44726H50.6118V15.294ZM54.079 15.294H55.061V10.3359H56.719V9.44726H52.4368V10.3359H54.079V15.294ZM62.2063 15.3584C63.8761 15.3584 65.1206 14.156 65.1206 12.3706C65.1206 10.5852 63.8761 9.38293 62.2063 9.38293C60.4687 9.38293 59.2798 10.6536 59.2798 12.3706C59.2798 14.0916 60.4687 15.3584 62.2063 15.3584ZM62.2063 14.4294C61.0771 14.4294 60.3018 13.5167 60.3018 12.3706C60.3018 11.2246 61.0771 10.3078 62.2063 10.3078C63.2758 10.3078 64.0988 11.1683 64.0988 12.3666C64.0988 13.5649 63.2758 14.4294 62.2063 14.4294ZM69.9317 9.44726V13.6453H69.9119L67.089 9.44726H66.1148V15.294H67.0969V11.1562H67.1128L69.9119 15.294H70.9139V9.44726H69.9317Z" fill="white"/>
        <path d="M107.021 0.25293H6.97964C3.26296 0.25293 0.25 3.3001 0.25 7.05897V32.9414C0.25 36.7002 3.26296 39.7474 6.97964 39.7474H107.021C110.737 39.7474 113.75 36.7002 113.75 32.9414V7.05897C113.75 3.3001 110.737 0.25293 107.021 0.25293Z" stroke="white" stroke-width="0.429739"/>
      </g>
      <defs>
        <clipPath id="clip0_42_2482">
          <rect width="114" height="40" fill="white"/>
        </clipPath>
      </defs>
    </symbol>


    <symbol id="icon-logo" viewBox="0 0 35 32">
      <path fill="none" stroke="#fff" style="stroke: var(--color1, #fff)" stroke-linejoin="miter" stroke-linecap="butt" stroke-miterlimit="4" stroke-width="4" d="M31.223 16c0 7.745-6.231 14-13.889 14s-13.889-6.255-13.889-14c0-7.745 6.231-14 13.889-14s13.889 6.255 13.889 14z"></path>
      <path fill="#fff" style="fill: var(--color1, #fff)" d="M32.14 21.819v-11.636l1.797 1.034c0.452 0.26 0.731 0.742 0.731 1.264v7.041c0 0.522-0.279 1.004-0.731 1.264l-1.797 1.034z"></path>
      <path fill="#fff" style="fill: var(--color1, #fff)" d="M2.528 10.181v11.636l-1.797-1.034c-0.452-0.26-0.731-0.742-0.731-1.264v-7.040c0-0.522 0.279-1.004 0.731-1.264l1.797-1.034z"></path>
    </symbol>

    <symbol id="icon-hamburger" fill="none" viewBox="0 0 24 24" stroke-width="1.5" stroke="currentColor">
      <path stroke-linecap="round" stroke-linejoin="round" d="M3.75 9h16.5m-16.5 6.75h16.5" />
    </symbol>
  </defs>
</svg>


<svg width="114" height="40" viewBox="0 0 114 40" fill="none"
  xmlns="http://www.w3.org/2000/svg">
  <g clip-path="url(#clip0_42_2482)">
    <path d="M107.021 0.25293H6.97964C3.26296 0.25293 0.25 3.3001 0.25 7.05897V32.9414C0.25 36.7002 3.26296 39.7474 6.97964 39.7474H107.021C110.737 39.7474 113.75 36.7002 113.75 32.9414V7.05897C113.75 3.3001 110.737 0.25293 107.021 0.25293Z" fill="#161616" fill-opacity="0.94"/>
    <path d="M7.47181 10.8008L16.0371 19.4008L18.3855 17.0258L8.00328 10.9633C7.83024 10.8617 7.64484 10.8055 7.47181 10.8008ZM6.75494 11.2008C6.6777 11.3399 6.63135 11.5039 6.63135 11.6883V28.4008C6.63135 28.5352 6.65916 28.6555 6.70551 28.7633L15.4686 19.9633L6.75494 11.2008ZM19.1023 17.4382L16.5932 19.9633L19.1023 22.4758L22.1675 20.7008C22.6031 20.4461 22.665 20.1227 22.6619 19.9508C22.6572 19.6664 22.4796 19.4008 22.1798 19.2382C21.9188 19.0961 19.9798 17.9539 19.1023 17.4382ZM16.0371 20.5258L7.39765 29.1882C7.54134 29.1805 7.69738 29.1492 7.8426 29.0633C8.18095 28.8648 15.0236 24.8633 15.0236 24.8633L18.3978 22.9008L16.0371 20.5258Z" fill="white"/>
    <path d="M37.6184 29.6761C39.1452 29.6761 40.597 29.1867 41.5035 28.4285V24.2373H37.4071V25.7675H39.8268V27.4565C39.1588 27.9046 38.4091 28.1182 37.6184 28.1182C35.635 28.1182 34.374 26.5948 34.374 24.5888C34.374 22.4105 35.7644 21.0525 37.5503 21.0525C38.6681 21.0525 39.561 21.4731 40.2358 22.1417L41.4286 21.1077C40.3994 19.9702 38.9407 19.4464 37.557 19.4464C34.5103 19.4464 32.6155 21.6453 32.6155 24.5957C32.6155 27.7735 34.7761 29.6761 37.6184 29.6761ZM46.3704 29.6968C48.4561 29.6968 49.9421 28.2561 49.9421 26.1605C49.9421 24.0512 48.4561 22.6035 46.3704 22.6035C44.2166 22.6035 42.7921 24.1269 42.7921 26.1605C42.7921 28.1802 44.2166 29.6968 46.3704 29.6968ZM46.3704 28.2699C45.1981 28.2699 44.387 27.3393 44.387 26.1605C44.387 24.9611 45.1844 24.0373 46.3773 24.0373C47.495 24.0373 48.3607 24.8991 48.3607 26.1605C48.3607 27.4013 47.4814 28.2699 46.3773 28.2699H46.3704ZM54.475 29.6968C56.5606 29.6968 58.0466 28.2561 58.0466 26.1605C58.0466 24.0512 56.5606 22.6035 54.475 22.6035C52.3211 22.6035 50.8965 24.1269 50.8965 26.1605C50.8965 28.1802 52.3211 29.6968 54.475 29.6968ZM54.475 28.2699C53.3026 28.2699 52.4915 27.3393 52.4915 26.1605C52.4915 24.9611 53.2889 24.0373 54.4817 24.0373C55.5996 24.0373 56.4652 24.8991 56.4652 26.1605C56.4652 27.4013 55.586 28.2699 54.4817 28.2699H54.475ZM64.3584 22.7069V23.4307H64.3312C63.7586 22.8793 63.0021 22.5966 62.2183 22.5966C60.3234 22.5966 58.9738 24.058 58.9738 26.0709C58.9738 28.1182 60.3915 29.4693 62.3 29.4693C63.152 29.4693 63.854 29.1729 64.3653 28.6284H64.3925V29.3591C64.3925 30.2827 63.7041 31.0548 62.3613 31.0548C61.4002 31.0548 60.7869 30.7721 60.0507 30.3724L59.6827 31.7718C60.446 32.2267 61.4343 32.4818 62.4567 32.4818C64.9787 32.4818 65.9262 30.9652 65.9262 28.8765V22.7L64.3584 22.7069ZM62.5113 28.0218C61.414 28.0218 60.5687 27.2634 60.5687 26.0226C60.5687 24.8577 61.3526 24.0442 62.5113 24.0442C63.5951 24.0442 64.4335 24.8232 64.4335 26.002C64.4335 27.1669 63.6495 28.0148 62.5113 28.0148V28.0218ZM67.7054 29.5865H69.2662V19.1982H67.7054V29.5865ZM77.3502 26.064C77.3502 24.058 76.0553 22.6035 74.0445 22.6035C72.1496 22.6035 70.7251 24.0373 70.7251 26.1467C70.7251 28.2974 72.2247 29.6968 74.2081 29.6968C75.544 29.6968 76.4983 29.1522 77.0777 28.4008L75.9871 27.4565C75.6394 27.8977 75.0806 28.2699 74.2899 28.2699C73.288 28.2699 72.5518 27.6771 72.3474 26.6982H77.3094C77.3299 26.5741 77.3502 26.3121 77.3502 26.0709V26.064ZM74.1264 24.0373C75.0192 24.0373 75.585 24.5888 75.7894 25.4229H72.3746C72.5996 24.5268 73.2743 24.0373 74.1264 24.0373ZM82.3402 29.5865H84.0237V26.0158H85.7345C87.8748 26.0158 89.3198 24.9818 89.3198 22.8104C89.3198 20.9422 88.3041 19.5635 85.9322 19.5635H82.3402V29.5865ZM84.0237 24.4717V21.0869H85.6868C86.9001 21.0869 87.5749 21.7281 87.5749 22.7827C87.5749 23.7754 86.9546 24.4785 85.5709 24.4785L84.0237 24.4717ZM90.7582 29.5865H92.319V19.1982H90.7582V29.5865ZM99.1898 22.7069V23.5341H99.1558C98.6446 22.9206 97.9153 22.6035 97.0497 22.6035C95.1752 22.6035 93.7644 24.0994 93.7644 26.1812C93.7644 28.3113 95.1752 29.6968 97.0633 29.6968C98.0039 29.6968 98.7332 29.3314 99.2375 28.6697H99.2513V29.5934H100.744V22.7069H99.1898ZM97.3086 28.2699C96.1567 28.2699 95.3525 27.4082 95.3525 26.1881C95.3525 24.8646 96.2249 24.0373 97.3155 24.0373C98.4333 24.0373 99.2444 24.968 99.2444 26.1881C99.2444 27.4358 98.3651 28.2699 97.3086 28.2699ZM106.974 22.7069L105.229 27.3531H105.215L103.327 22.7069H101.692L104.459 29.2074L103.232 32.3784H104.875L108.61 22.7069H106.974Z" fill="white"/>
    <path d="M35.7686 15.3462C36.6593 15.3462 37.5062 15.0608 38.035 14.6185V12.1736H35.6454V13.0662H37.0569V14.0514C36.6672 14.3128 36.2299 14.4375 35.7686 14.4375C34.6116 14.4375 33.8761 13.5488 33.8761 12.3787C33.8761 11.108 34.6871 10.3158 35.729 10.3158C36.381 10.3158 36.9019 10.5611 37.2954 10.9512L37.9913 10.348C37.3909 9.68451 36.54 9.37891 35.7329 9.37891C33.9556 9.37891 32.8502 10.6616 32.8502 12.3827C32.8502 14.2365 34.1106 15.3462 35.7686 15.3462ZM39.1365 15.294H42.9455V14.4053H40.1185V12.8411H42.2696V11.9484H40.1185V10.3359H42.7786V9.44726H39.1405L39.1365 15.294ZM45.1125 15.294H46.0947V10.3359H47.7527V9.44726H43.4705V10.3359H45.1125V15.294ZM50.6118 15.294H51.6017V9.44726H50.6118V15.294ZM54.079 15.294H55.061V10.3359H56.719V9.44726H52.4368V10.3359H54.079V15.294ZM62.2063 15.3584C63.8761 15.3584 65.1206 14.156 65.1206 12.3706C65.1206 10.5852 63.8761 9.38293 62.2063 9.38293C60.4687 9.38293 59.2798 10.6536 59.2798 12.3706C59.2798 14.0916 60.4687 15.3584 62.2063 15.3584ZM62.2063 14.4294C61.0771 14.4294 60.3018 13.5167 60.3018 12.3706C60.3018 11.2246 61.0771 10.3078 62.2063 10.3078C63.2758 10.3078 64.0988 11.1683 64.0988 12.3666C64.0988 13.5649 63.2758 14.4294 62.2063 14.4294ZM69.9317 9.44726V13.6453H69.9119L67.089 9.44726H66.1148V15.294H67.0969V11.1562H67.1128L69.9119 15.294H70.9139V9.44726H69.9317Z" fill="white"/>
    <path d="M107.021 0.25293H6.97964C3.26296 0.25293 0.25 3.3001 0.25 7.05897V32.9414C0.25 36.7002 3.26296 39.7474 6.97964 39.7474H107.021C110.737 39.7474 113.75 36.7002 113.75 32.9414V7.05897C113.75 3.3001 110.737 0.25293 107.021 0.25293Z" stroke="white" stroke-width="0.429739"/>
  </g>
  <defs>
    <clipPath id="clip0_42_2482">
      <rect width="114" height="40" fill="white"/>
    </clipPath>
  </defs>
</svg>
