<svg width="122" height="24" viewBox="0 0 122 24" fill="none" xmlns="http://www.w3.org/2000/svg">
<path d="M23.4172 12C23.4172 17.8089 18.7437 22.5 13.0005 22.5C7.2574 22.5 2.58386 17.8089 2.58386 12C2.58386 6.19114 7.2574 1.5 13.0005 1.5C18.7437 1.5 23.4172 6.19114 23.4172 12Z" stroke="white" stroke-width="3"/>
<path d="M24.1049 16.364V7.63672L25.4524 8.41215C25.7916 8.60733 26.0007 8.96883 26.0007 9.36016V14.6406C26.0007 15.0319 25.7916 15.3934 25.4524 15.5886L24.1049 16.364Z" fill="white"/>
<path d="M1.89587 7.63601L1.89587 16.3633L0.548285 15.5878C0.209106 15.3927 4.05347e-05 15.0312 4.05007e-05 14.6398L4.00423e-05 9.35945C4.00084e-05 8.96812 0.209106 8.60662 0.548285 8.41144L1.89587 7.63601Z" fill="white"/>
<path d="M47.1256 4.80078L42.7897 12.8867H42.7506L38.3854 4.80078H35.5533V19H38.3463V10.1816H38.3756L41.8424 16.3145H43.6686L47.1354 10.1816H47.1647V19H49.9576V4.80078H47.1256ZM61.5596 14.0391C61.5596 11.168 59.6358 9.06836 56.7647 9.06836C53.9912 9.06836 51.9209 11.1387 51.9209 14.1074C51.9209 17.1543 54.0889 19.166 56.9502 19.166C58.9131 19.166 60.3389 18.375 61.169 17.3203L59.4698 15.7383C58.9326 16.3926 58.1612 16.8516 57.1358 16.8418C55.8858 16.832 54.958 16.1289 54.6455 14.9668H61.4912C61.5401 14.791 61.5596 14.3418 61.5596 14.0293V14.0391ZM56.8526 11.373C57.9854 11.373 58.6983 12.0469 58.9619 13.082H54.6553C54.958 11.9492 55.7881 11.373 56.8526 11.373ZM75.1342 9.06836C73.7377 9.06836 72.5365 9.625 71.7358 10.6504H71.7065C71.1205 9.56641 70.1049 9.06836 68.8061 9.06836C67.7221 9.06836 66.6576 9.57617 65.8862 10.5332H65.8569V9.23438H63.2397V19H65.8569V14.1172C65.8569 12.3691 66.7455 11.4219 67.9174 11.4219C69.1381 11.4219 69.6557 12.3984 69.6557 13.9609V19.0098H72.2631V14.1172C72.2631 12.3691 73.1615 11.4219 74.2553 11.4219C75.4955 11.4219 75.9643 12.3984 75.9643 13.9609V19.0098H78.5815V13.3262C78.5815 10.3477 77.2631 9.06836 75.144 9.06836H75.1342ZM86.3162 9.06836C85.1248 9.06836 84.0994 9.50781 83.367 10.3477H83.3182V4.2832H80.701V19H83.201V17.8184H83.2498C83.9334 18.6973 84.949 19.166 86.2479 19.166C88.9432 19.166 90.9158 17.1738 90.9158 14.1562C90.9158 11.1875 88.9334 9.07812 86.3162 9.07812V9.06836ZM85.7596 16.832C84.324 16.832 83.1912 15.7676 83.1912 14.166C83.1912 12.6035 84.2655 11.4316 85.7694 11.4316C87.1658 11.4316 88.2596 12.4961 88.2596 14.166C88.2596 15.748 87.2342 16.832 85.7596 16.832ZM101.746 14.0391C101.746 11.168 99.8225 9.06836 96.9514 9.06836C94.178 9.06836 92.1076 11.1387 92.1076 14.1074C92.1076 17.1543 94.2756 19.166 97.1369 19.166C99.0998 19.166 100.526 18.375 101.356 17.3203L99.6565 15.7383C99.1194 16.3926 98.3479 16.8516 97.3225 16.8418C96.0725 16.832 95.1448 16.1289 94.8323 14.9668H101.678C101.727 14.791 101.746 14.3418 101.746 14.0293V14.0391ZM97.0393 11.373C98.1721 11.373 98.885 12.0469 99.1487 13.082H94.842C95.1448 11.9492 95.9748 11.373 97.0393 11.373ZM109.042 9.06836C107.889 9.06836 106.825 9.63477 106.092 10.6699H106.063V9.23438H103.446V19H106.063V14.4785C106.063 13.0234 106.942 11.9297 108.553 11.9297C108.7 11.9297 108.983 11.9395 109.247 11.959V9.07812C109.188 9.06836 109.12 9.06836 109.042 9.06836ZM117.372 4.2832V10.3477H117.323C116.591 9.50781 115.565 9.06836 114.374 9.06836C111.757 9.06836 109.774 11.1777 109.774 14.1465C109.774 17.1641 111.747 19.166 114.452 19.166C115.761 19.166 116.767 18.6875 117.45 17.8184H117.509V19H119.999V4.2832H117.372ZM114.94 16.832C113.476 16.832 112.44 15.748 112.44 14.166C112.44 12.4961 113.544 11.4316 114.95 11.4316C116.444 11.4316 117.519 12.6035 117.519 14.166C117.519 15.7676 116.376 16.832 114.94 16.832Z" fill="white"/>
</svg>
