<svg width="100" height="40" viewBox="0 0 100 40" fill="none" xmlns="http://www.w3.org/2000/svg">
<g clip-path="url(#clip0_42_2488)">
<path d="M92.9412 0.25293H7.05884C3.29997 0.25293 0.252808 3.3001 0.252808 7.05896V32.9415C0.252808 36.7004 3.29997 39.7475 7.05884 39.7475H92.9412C96.7001 39.7475 99.7473 36.7004 99.7473 32.9415V7.05896C99.7473 3.3001 96.7001 0.25293 92.9412 0.25293Z" fill="#161616" fill-opacity="0.94"/>
<mask id="mask0_42_2488" style="mask-type:luminance" maskUnits="userSpaceOnUse" x="4" y="10" width="21" height="20">
<path d="M24.7059 10H4.70593V30H24.7059V10Z" fill="white"/>
</mask>
<g mask="url(#mask0_42_2488)">
<path d="M21.7499 16.5237C21.6679 16.5751 19.7159 17.6584 19.7159 20.0604C19.8079 22.7997 22.1792 23.7604 22.2199 23.7604C22.1792 23.8117 21.8619 25.0691 20.9219 26.3871C20.1759 27.5224 19.3479 28.6671 18.0906 28.6671C16.8946 28.6671 16.4652 27.9104 15.0852 27.9104C13.6032 27.9104 13.1839 28.6671 12.0492 28.6671C10.7919 28.6671 9.90253 27.4611 9.11586 26.3364C8.09386 24.8644 7.2252 22.5544 7.19453 20.3364C7.17386 19.1611 7.39919 18.0057 7.97119 17.0244C8.77853 15.6544 10.2199 14.7244 11.7939 14.6937C12.9999 14.6531 14.0732 15.5217 14.8092 15.5217C15.5146 15.5217 16.8332 14.6937 18.3252 14.6937C18.9692 14.6944 20.6866 14.8884 21.7499 16.5237ZM14.7072 14.4591C14.4926 13.3857 15.0852 12.3124 15.6372 11.6278C16.3426 10.7998 17.4566 10.2378 18.4172 10.2378C18.4786 11.3111 18.0899 12.3637 17.3952 13.1304C16.7719 13.9584 15.6986 14.5817 14.7072 14.4591Z" fill="white"/>
</g>
<path d="M39.499 29.2013H41.2775L37.5137 19.1784H35.8524L32.1162 29.2013H33.8879L34.6461 27.0437H38.7408L39.499 29.2013ZM35.1632 25.5685L36.6866 21.2257H36.6935L38.2169 25.5685H35.1632ZM46.1376 22.2183C45.2277 22.2183 44.4763 22.5423 43.9524 23.149H43.9249V22.3149H42.3463V31.9931H43.9249V28.3603H43.9456C44.4488 28.967 45.1863 29.3116 46.1239 29.3116C48.0334 29.3116 49.4603 27.9191 49.4603 25.7961C49.4603 23.7073 48.0334 22.2183 46.1376 22.2183ZM45.8757 27.8778C44.7521 27.8778 43.8628 27.0437 43.8628 25.7961C43.8628 24.5828 44.6832 23.6522 45.8688 23.6522C46.9717 23.6522 47.8541 24.4793 47.8541 25.8029C47.8541 27.023 47.0407 27.8778 45.8757 27.8778ZM54.6237 22.2183C53.7137 22.2183 52.9623 22.5423 52.4384 23.149H52.4109V22.3149H50.8323V31.9931H52.4109V28.3603H52.4316C52.9348 28.967 53.6724 29.3116 54.6099 29.3116C56.5194 29.3116 57.9463 27.9191 57.9463 25.7961C57.9463 23.7073 56.5194 22.2183 54.6237 22.2183ZM54.3617 27.8778C53.2381 27.8778 52.3489 27.0437 52.3489 25.7961C52.3489 24.5828 53.1692 23.6522 54.3548 23.6522C55.4577 23.6522 56.3401 24.4793 56.3401 25.8029C56.3401 27.023 55.5267 27.8778 54.3617 27.8778ZM66.0121 29.3116C67.6114 29.3116 69.4657 28.3879 69.4657 26.3199C69.4657 24.3829 68.087 23.9072 66.3636 23.2317C65.1504 22.7629 64.4749 22.5078 64.4887 21.7771C64.5024 21.0326 65.116 20.6052 65.888 20.6052C66.5774 20.6052 67.377 20.9499 68.1973 21.6324L69.2107 20.2951C68.1973 19.4955 67.0737 19.0543 65.888 19.0611C64.1577 19.0681 62.724 20.2882 62.724 21.8668C62.724 23.6935 64.2336 24.3759 65.7502 24.9137C67.0186 25.3617 67.6872 25.6444 67.6872 26.5129C67.6872 27.2573 67.122 27.7399 66.019 27.7399C65.1642 27.7399 64.1784 27.2988 63.4477 26.4164L62.3724 27.7399C63.427 28.8222 64.73 29.3116 66.0121 29.3116ZM72.8782 29.3116C73.7743 29.3116 74.2086 29.1255 74.6222 28.9118L74.2086 27.5469C73.8433 27.7399 73.4573 27.8433 73.1884 27.8433C72.7473 27.8433 72.5267 27.5883 72.5267 26.8851V23.6659H74.5602V22.3217H72.5267V19.8608L70.9549 20.0331V22.3217H70.114V23.6659H70.9549V27.0299C70.9549 28.5671 71.6856 29.3116 72.8782 29.3116ZM78.5724 29.3116C80.6817 29.3116 82.1846 27.8709 82.1846 25.7753C82.1846 23.6659 80.6817 22.2183 78.5724 22.2183C76.3941 22.2183 74.9534 23.7418 74.9534 25.7753C74.9534 27.7951 76.3941 29.3116 78.5724 29.3116ZM78.5724 27.8846C77.3868 27.8846 76.5664 26.9541 76.5664 25.7753C76.5664 24.5758 77.3729 23.6522 78.5793 23.6522C79.7099 23.6522 80.5853 24.5138 80.5853 25.7753C80.5853 27.0162 79.696 27.8846 78.5793 27.8846H78.5724ZM87.3066 22.2183C86.4656 22.2183 85.7005 22.625 85.1559 23.3489H85.1421V22.3149H83.5635V29.2013H85.1421V25.9338C85.1421 24.8171 85.8246 23.9555 87.024 23.9555C87.1342 23.9555 87.3203 23.9624 87.4996 23.9762V22.2183C87.4445 22.2115 87.3755 22.2115 87.3066 22.2115V22.2183ZM94.6276 25.6788C94.6276 23.6729 93.3179 22.2183 91.2843 22.2183C89.368 22.2183 87.9273 23.6522 87.9273 25.7616C87.9273 27.9123 89.4439 29.3116 91.4497 29.3116C92.8009 29.3116 93.766 28.767 94.3519 28.0157L93.2489 27.0712C92.8974 27.5124 92.3321 27.8846 91.5326 27.8846C90.5192 27.8846 89.7747 27.2918 89.5679 26.313H94.5863C94.6069 26.1889 94.6276 25.927 94.6276 25.6857V25.6788ZM91.367 23.6522C92.2701 23.6522 92.8422 24.2036 93.049 25.0377H89.5955C89.8229 24.1416 90.5054 23.6522 91.367 23.6522Z" fill="white"/>
<path d="M36.2764 15.2942H37.3138L35.1183 9.44749H34.1493L31.9697 15.2942H33.0031L33.4455 14.0356H35.8341L36.2764 15.2942ZM33.7471 13.1751L34.6357 10.6418H34.6397L35.5284 13.1751H33.7471ZM40.2011 11.2811L39.1717 14.1442H39.1557L38.1062 11.2811H37.121L38.7214 15.2942H39.6021L41.1944 11.2811H40.2011ZM44.5241 11.2811V11.7637H44.504C44.2024 11.4058 43.7721 11.2208 43.2614 11.2208C42.1556 11.2208 41.3233 12.0934 41.3233 13.3078C41.3233 14.5504 42.1556 15.3586 43.2695 15.3586C43.8244 15.3586 44.2547 15.1454 44.5522 14.7594H44.5602V15.2982H45.4409V11.2811H44.5241ZM43.4142 14.5262C42.7347 14.5262 42.2602 14.0235 42.2602 13.3118C42.2602 12.5398 42.7749 12.0572 43.4182 12.0572C44.0777 12.0572 44.5562 12.6001 44.5562 13.3118C44.5562 14.0396 44.0375 14.5262 43.4142 14.5262ZM46.965 10.682C47.3028 10.682 47.5843 10.4045 47.5843 10.0668C47.5843 9.733 47.3028 9.45554 46.965 9.45554C46.6153 9.45554 46.3417 9.733 46.3417 10.0668C46.3417 10.4045 46.6153 10.682 46.965 10.682ZM46.4986 15.2942H47.4195V11.2811H46.4986V15.2942ZM48.5777 15.2942H49.4986V9.23438H48.5777V15.2942ZM53.552 11.2811V11.7637H53.5318C53.2303 11.4058 52.8001 11.2208 52.2894 11.2208C51.1836 11.2208 50.3511 12.0934 50.3511 13.3078C50.3511 14.5504 51.1836 15.3586 52.2974 15.3586C52.8523 15.3586 53.2826 15.1454 53.5802 14.7594H53.5882V15.2982H54.4688V11.2811H53.552ZM52.4422 14.5262C51.7626 14.5262 51.2881 14.0235 51.2881 13.3118C51.2881 12.5398 51.8028 12.0572 52.4462 12.0572C53.1056 12.0572 53.5842 12.6001 53.5842 13.3118C53.5842 14.0396 53.0655 14.5262 52.4422 14.5262ZM57.6778 11.2208C57.1511 11.2208 56.7088 11.4058 56.4071 11.7637H56.387V9.23438H55.4662V15.2942H56.3469V14.7594H56.367C56.6564 15.1414 57.0988 15.3586 57.6698 15.3586C58.7837 15.3586 59.6161 14.5464 59.6161 13.3078C59.6161 12.0894 58.7837 11.2168 57.6778 11.2168V11.2208ZM57.525 14.5222C56.8696 14.5222 56.3509 14.0356 56.3509 13.3078C56.3509 12.596 56.8334 12.0532 57.521 12.0532C58.1644 12.0532 58.6791 12.5358 58.6791 13.3078C58.6791 14.0195 58.2047 14.5222 57.525 14.5222ZM60.4768 15.2942H61.3976V9.23438H60.4768V15.2942ZM66.1668 13.2394C66.1668 12.0693 65.4028 11.2208 64.2166 11.2208C63.0987 11.2208 62.2582 12.0572 62.2582 13.2876C62.2582 14.5422 63.1429 15.3586 64.313 15.3586C65.1013 15.3586 65.6642 15.0409 66.006 14.6026L65.3626 14.0516C65.1575 14.3091 64.8277 14.5262 64.3613 14.5262C63.7702 14.5262 63.336 14.1804 63.2153 13.6094H66.1427C66.1548 13.5369 66.1668 13.3842 66.1668 13.2434V13.2394ZM64.2648 12.0572C64.7916 12.0572 65.1254 12.3789 65.246 12.8654H63.2314C63.3641 12.3427 63.7622 12.0572 64.2648 12.0572ZM70.8678 15.3586C72.0983 15.3586 72.9749 14.5181 72.9749 13.2958C72.9749 12.0653 72.0983 11.2208 70.8678 11.2208C69.5971 11.2208 68.7568 12.1095 68.7568 13.2958C68.7568 14.4739 69.5971 15.3586 70.8678 15.3586ZM70.8678 14.5262C70.1762 14.5262 69.6977 13.9833 69.6977 13.2958C69.6977 12.596 70.1682 12.0572 70.8718 12.0572C71.5314 12.0572 72.042 12.5599 72.042 13.2958C72.042 14.0195 71.5233 14.5262 70.8718 14.5262H70.8678ZM76.0553 11.2208C75.5366 11.2208 75.05 11.4339 74.7082 11.832H74.6961V11.2811H73.7753V15.2942H74.6961V13.2796C74.6961 12.4915 75.1143 12.0572 75.7376 12.0572C76.2925 12.0572 76.6102 12.3226 76.6102 13.1711V15.3022H77.531V12.9339C77.531 11.7275 76.9358 11.2208 76.0553 11.2208ZM81.7415 15.3586C82.2642 15.3586 82.5176 15.25 82.7588 15.1253L82.5176 14.3292C82.3044 14.4418 82.0793 14.5021 81.9224 14.5021C81.6651 14.5021 81.5364 14.3533 81.5364 13.9432V12.0653H82.7227V11.2811H81.5364V9.84559L80.6196 9.94612V11.2811H80.129V12.0653H80.6196V14.0275C80.6196 14.9242 81.0458 15.3586 81.7415 15.3586ZM85.6783 11.2208C85.1435 11.2208 84.657 11.4098 84.3191 11.7838H84.3031V9.23438H83.3823V15.2942H84.3031V13.2515C84.3031 12.4634 84.7213 12.0532 85.3848 12.0532C85.9397 12.0532 86.2574 12.3266 86.2574 13.1268V15.2982H87.1782V12.8896C87.1782 11.6913 86.563 11.2168 85.6783 11.2168V11.2208ZM91.8188 13.2394C91.8188 12.0693 91.0548 11.2208 89.8685 11.2208C88.7507 11.2208 87.9102 12.0572 87.9102 13.2876C87.9102 14.5422 88.7949 15.3586 89.965 15.3586C90.7531 15.3586 91.3162 15.0409 91.658 14.6026L91.0145 14.0516C90.8095 14.3091 90.4797 14.5262 90.0133 14.5262C89.4222 14.5262 88.9878 14.1804 88.8673 13.6094H91.7947C91.8067 13.5369 91.8188 13.3842 91.8188 13.2434V13.2394ZM89.9168 12.0572C90.4436 12.0572 90.7773 12.3789 90.898 12.8654H88.8834C89.0161 12.3427 89.4142 12.0572 89.9168 12.0572Z" fill="white"/>
<path d="M92.9412 0.25293H7.05884C3.29997 0.25293 0.252808 3.3001 0.252808 7.05896V32.9415C0.252808 36.7004 3.29997 39.7475 7.05884 39.7475H92.9412C96.7001 39.7475 99.7473 36.7004 99.7473 32.9415V7.05896C99.7473 3.3001 96.7001 0.25293 92.9412 0.25293Z" stroke="white" stroke-width="0.429739"/>
</g>
<defs>
<clipPath id="clip0_42_2488">
<rect width="100" height="40" fill="white"/>
</clipPath>
</defs>
</svg>
