<svg width="114" height="40" viewBox="0 0 114 40" fill="none" xmlns="http://www.w3.org/2000/svg">
<g clip-path="url(#clip0_42_2482)">
<path d="M107.021 0.25293H6.97964C3.26296 0.25293 0.25 3.3001 0.25 7.05897V32.9414C0.25 36.7002 3.26296 39.7474 6.97964 39.7474H107.021C110.737 39.7474 113.75 36.7002 113.75 32.9414V7.05897C113.75 3.3001 110.737 0.25293 107.021 0.25293Z" fill="#161616" fill-opacity="0.94"/>
<path d="M7.47181 10.8008L16.0371 19.4008L18.3855 17.0258L8.00328 10.9633C7.83024 10.8617 7.64484 10.8055 7.47181 10.8008ZM6.75494 11.2008C6.6777 11.3399 6.63135 11.5039 6.63135 11.6883V28.4008C6.63135 28.5352 6.65916 28.6555 6.70551 28.7633L15.4686 19.9633L6.75494 11.2008ZM19.1023 17.4382L16.5932 19.9633L19.1023 22.4758L22.1675 20.7008C22.6031 20.4461 22.665 20.1227 22.6619 19.9508C22.6572 19.6664 22.4796 19.4008 22.1798 19.2382C21.9188 19.0961 19.9798 17.9539 19.1023 17.4382ZM16.0371 20.5258L7.39765 29.1882C7.54134 29.1805 7.69738 29.1492 7.8426 29.0633C8.18095 28.8648 15.0236 24.8633 15.0236 24.8633L18.3978 22.9008L16.0371 20.5258Z" fill="white"/>
<path d="M37.6184 29.6761C39.1452 29.6761 40.597 29.1867 41.5035 28.4285V24.2373H37.4071V25.7675H39.8268V27.4565C39.1588 27.9046 38.4091 28.1182 37.6184 28.1182C35.635 28.1182 34.374 26.5948 34.374 24.5888C34.374 22.4105 35.7644 21.0525 37.5503 21.0525C38.6681 21.0525 39.561 21.4731 40.2358 22.1417L41.4286 21.1077C40.3994 19.9702 38.9407 19.4464 37.557 19.4464C34.5103 19.4464 32.6155 21.6453 32.6155 24.5957C32.6155 27.7735 34.7761 29.6761 37.6184 29.6761ZM46.3704 29.6968C48.4561 29.6968 49.9421 28.2561 49.9421 26.1605C49.9421 24.0512 48.4561 22.6035 46.3704 22.6035C44.2166 22.6035 42.7921 24.1269 42.7921 26.1605C42.7921 28.1802 44.2166 29.6968 46.3704 29.6968ZM46.3704 28.2699C45.1981 28.2699 44.387 27.3393 44.387 26.1605C44.387 24.9611 45.1844 24.0373 46.3773 24.0373C47.495 24.0373 48.3607 24.8991 48.3607 26.1605C48.3607 27.4013 47.4814 28.2699 46.3773 28.2699H46.3704ZM54.475 29.6968C56.5606 29.6968 58.0466 28.2561 58.0466 26.1605C58.0466 24.0512 56.5606 22.6035 54.475 22.6035C52.3211 22.6035 50.8965 24.1269 50.8965 26.1605C50.8965 28.1802 52.3211 29.6968 54.475 29.6968ZM54.475 28.2699C53.3026 28.2699 52.4915 27.3393 52.4915 26.1605C52.4915 24.9611 53.2889 24.0373 54.4817 24.0373C55.5996 24.0373 56.4652 24.8991 56.4652 26.1605C56.4652 27.4013 55.586 28.2699 54.4817 28.2699H54.475ZM64.3584 22.7069V23.4307H64.3312C63.7586 22.8793 63.0021 22.5966 62.2183 22.5966C60.3234 22.5966 58.9738 24.058 58.9738 26.0709C58.9738 28.1182 60.3915 29.4693 62.3 29.4693C63.152 29.4693 63.854 29.1729 64.3653 28.6284H64.3925V29.3591C64.3925 30.2827 63.7041 31.0548 62.3613 31.0548C61.4002 31.0548 60.7869 30.7721 60.0507 30.3724L59.6827 31.7718C60.446 32.2267 61.4343 32.4818 62.4567 32.4818C64.9787 32.4818 65.9262 30.9652 65.9262 28.8765V22.7L64.3584 22.7069ZM62.5113 28.0218C61.414 28.0218 60.5687 27.2634 60.5687 26.0226C60.5687 24.8577 61.3526 24.0442 62.5113 24.0442C63.5951 24.0442 64.4335 24.8232 64.4335 26.002C64.4335 27.1669 63.6495 28.0148 62.5113 28.0148V28.0218ZM67.7054 29.5865H69.2662V19.1982H67.7054V29.5865ZM77.3502 26.064C77.3502 24.058 76.0553 22.6035 74.0445 22.6035C72.1496 22.6035 70.7251 24.0373 70.7251 26.1467C70.7251 28.2974 72.2247 29.6968 74.2081 29.6968C75.544 29.6968 76.4983 29.1522 77.0777 28.4008L75.9871 27.4565C75.6394 27.8977 75.0806 28.2699 74.2899 28.2699C73.288 28.2699 72.5518 27.6771 72.3474 26.6982H77.3094C77.3299 26.5741 77.3502 26.3121 77.3502 26.0709V26.064ZM74.1264 24.0373C75.0192 24.0373 75.585 24.5888 75.7894 25.4229H72.3746C72.5996 24.5268 73.2743 24.0373 74.1264 24.0373ZM82.3402 29.5865H84.0237V26.0158H85.7345C87.8748 26.0158 89.3198 24.9818 89.3198 22.8104C89.3198 20.9422 88.3041 19.5635 85.9322 19.5635H82.3402V29.5865ZM84.0237 24.4717V21.0869H85.6868C86.9001 21.0869 87.5749 21.7281 87.5749 22.7827C87.5749 23.7754 86.9546 24.4785 85.5709 24.4785L84.0237 24.4717ZM90.7582 29.5865H92.319V19.1982H90.7582V29.5865ZM99.1898 22.7069V23.5341H99.1558C98.6446 22.9206 97.9153 22.6035 97.0497 22.6035C95.1752 22.6035 93.7644 24.0994 93.7644 26.1812C93.7644 28.3113 95.1752 29.6968 97.0633 29.6968C98.0039 29.6968 98.7332 29.3314 99.2375 28.6697H99.2513V29.5934H100.744V22.7069H99.1898ZM97.3086 28.2699C96.1567 28.2699 95.3525 27.4082 95.3525 26.1881C95.3525 24.8646 96.2249 24.0373 97.3155 24.0373C98.4333 24.0373 99.2444 24.968 99.2444 26.1881C99.2444 27.4358 98.3651 28.2699 97.3086 28.2699ZM106.974 22.7069L105.229 27.3531H105.215L103.327 22.7069H101.692L104.459 29.2074L103.232 32.3784H104.875L108.61 22.7069H106.974Z" fill="white"/>
<path d="M35.7686 15.3462C36.6593 15.3462 37.5062 15.0608 38.035 14.6185V12.1736H35.6454V13.0662H37.0569V14.0514C36.6672 14.3128 36.2299 14.4375 35.7686 14.4375C34.6116 14.4375 33.8761 13.5488 33.8761 12.3787C33.8761 11.108 34.6871 10.3158 35.729 10.3158C36.381 10.3158 36.9019 10.5611 37.2954 10.9512L37.9913 10.348C37.3909 9.68451 36.54 9.37891 35.7329 9.37891C33.9556 9.37891 32.8502 10.6616 32.8502 12.3827C32.8502 14.2365 34.1106 15.3462 35.7686 15.3462ZM39.1365 15.294H42.9455V14.4053H40.1185V12.8411H42.2696V11.9484H40.1185V10.3359H42.7786V9.44726H39.1405L39.1365 15.294ZM45.1125 15.294H46.0947V10.3359H47.7527V9.44726H43.4705V10.3359H45.1125V15.294ZM50.6118 15.294H51.6017V9.44726H50.6118V15.294ZM54.079 15.294H55.061V10.3359H56.719V9.44726H52.4368V10.3359H54.079V15.294ZM62.2063 15.3584C63.8761 15.3584 65.1206 14.156 65.1206 12.3706C65.1206 10.5852 63.8761 9.38293 62.2063 9.38293C60.4687 9.38293 59.2798 10.6536 59.2798 12.3706C59.2798 14.0916 60.4687 15.3584 62.2063 15.3584ZM62.2063 14.4294C61.0771 14.4294 60.3018 13.5167 60.3018 12.3706C60.3018 11.2246 61.0771 10.3078 62.2063 10.3078C63.2758 10.3078 64.0988 11.1683 64.0988 12.3666C64.0988 13.5649 63.2758 14.4294 62.2063 14.4294ZM69.9317 9.44726V13.6453H69.9119L67.089 9.44726H66.1148V15.294H67.0969V11.1562H67.1128L69.9119 15.294H70.9139V9.44726H69.9317Z" fill="white"/>
<path d="M107.021 0.25293H6.97964C3.26296 0.25293 0.25 3.3001 0.25 7.05897V32.9414C0.25 36.7002 3.26296 39.7474 6.97964 39.7474H107.021C110.737 39.7474 113.75 36.7002 113.75 32.9414V7.05897C113.75 3.3001 110.737 0.25293 107.021 0.25293Z" stroke="white" stroke-width="0.429739"/>
</g>
<defs>
<clipPath id="clip0_42_2482">
<rect width="114" height="40" fill="white"/>
</clipPath>
</defs>
</svg>
