<svg width="26" height="24" viewBox="0 0 26 24" fill="none" xmlns="http://www.w3.org/2000/svg">
<path d="M23.4172 12C23.4172 17.8089 18.7437 22.5 13.0005 22.5C7.2574 22.5 2.58386 17.8089 2.58386 12C2.58386 6.19114 7.2574 1.5 13.0005 1.5C18.7437 1.5 23.4172 6.19114 23.4172 12Z" stroke="white" stroke-width="3"/>
<path d="M24.1049 16.364V7.63672L25.4524 8.41215C25.7916 8.60733 26.0007 8.96883 26.0007 9.36016V14.6406C26.0007 15.0319 25.7916 15.3934 25.4524 15.5886L24.1049 16.364Z" fill="white"/>
<path d="M1.89587 7.63601L1.89587 16.3633L0.548285 15.5878C0.209106 15.3927 4.05347e-05 15.0312 4.05007e-05 14.6398L4.00423e-05 9.35945C4.00084e-05 8.96812 0.209106 8.60662 0.548285 8.41144L1.89587 7.63601Z" fill="white"/>
</svg>
